<svg width="25" height="25" viewBox="0 0 25 25" fill="none" xmlns="http://www.w3.org/2000/svg">
<g clip-path="url(#clip0_2_20)">
<path fill-rule="evenodd" clip-rule="evenodd" d="M18.75 6.25H6.25C5.81797 6.25 5.46875 6.6 5.46875 7.03125C5.46875 7.46328 5.81797 7.8125 6.25 7.8125H18.75C19.182 7.8125 19.5312 7.46328 19.5312 7.03125C19.5312 6.6 19.182 6.25 18.75 6.25ZM23.4375 21.875C23.4375 22.7336 22.5891 23.4469 21.732 23.4469H3.10469C2.24766 23.4469 1.55234 22.7516 1.55234 21.893V3.25391C1.55234 2.39531 2.26719 1.5625 3.125 1.5625H21.875C22.7328 1.5625 23.4375 2.26719 23.4375 3.125V21.875ZM21.875 0H3.125C1.41094 0 0 1.53828 0 3.25391V21.893C0 23.6094 1.38984 25 3.10469 25H21.732C23.4469 25 25 23.5906 25 21.875V3.125C25 1.40937 23.5891 0 21.875 0ZM18.75 15.625H6.25C5.81797 15.625 5.46875 15.975 5.46875 16.4062C5.46875 16.8383 5.81797 17.1875 6.25 17.1875H18.75C19.182 17.1875 19.5312 16.8383 19.5312 16.4062C19.5312 15.975 19.182 15.625 18.75 15.625ZM18.75 10.9375H6.25C5.81797 10.9375 5.46875 11.2875 5.46875 11.7188C5.46875 12.1508 5.81797 12.5 6.25 12.5H18.75C19.182 12.5 19.5312 12.1508 19.5312 11.7188C19.5312 11.2875 19.182 10.9375 18.75 10.9375Z" fill="white"/>
</g>
<defs>
<clipPath id="clip0_2_20">
<rect width="25" height="25" fill="white"/>
</clipPath>
</defs>
</svg>
